# xmcd
#
# Track frame offsets:
# 150
# 19053
# 42073
# 63229
# 77670
# 94990
# 113591
# 132280
# 150244
# 170843
# 184254
#
# Disc length: 2843 seconds
#
#
# Revision: 0
# Processed by: cddbd v1.5.2PL0 Copyright (c) Steve Scherf et al.
# Submitted via: FreeRIP 2.944 
#
DISCID=830b190b
DTITLE=The Homegrown String Band_Ragged But Right - Ragged But Right
DYEAR=2007
DGENRE=Country
TTITLE0=Goin' Round The World
TTITLE1=Don't Let Your Deal Go Down
TTITLE2=Take Me Away
TTITLE3=Prayin' For Spring
TTITLE4=A Minor Catastrophe
TTITLE5=Shady Grave
TTITLE6=When The Apples Bloom In New York
TTITLE7=The Man Who Dressed In Black
TTITLE8=Ball And Chain
TTITLE9=Life Is Hard
TTITLE10=Darlin' Corey
EXTD=
EXTT0=
EXTT1=
EXTT2=
EXTT3=
EXTT4=
EXTT5=
EXTT6=
EXTT7=
EXTT8=
EXTT9=
EXTT10=
PLAYORDER=
